<svg xmlns="http://www.w3.org/2000/svg" xmlns:xlink="http://www.w3.org/1999/xlink" width="384" zoomAndPan="magnify" viewBox="0 0 288 78.749999" height="105" preserveAspectRatio="xMidYMid meet" version="1.0"><defs><g/><clipPath id="081c9ed19e"><path d="M 5.308594 7.851562 L 68.109375 7.851562 L 68.109375 70.652344 L 5.308594 70.652344 Z M 5.308594 7.851562 " clip-rule="nonzero"/></clipPath><clipPath id="32fd232182"><path d="M 36.707031 7.851562 C 19.367188 7.851562 5.308594 21.910156 5.308594 39.25 C 5.308594 56.59375 19.367188 70.652344 36.707031 70.652344 C 54.050781 70.652344 68.109375 56.59375 68.109375 39.25 C 68.109375 21.910156 54.050781 7.851562 36.707031 7.851562 Z M 36.707031 7.851562 " clip-rule="nonzero"/></clipPath><clipPath id="b982624355"><path d="M 29 19.773438 L 45 19.773438 L 45 32 L 29 32 Z M 29 19.773438 " clip-rule="nonzero"/></clipPath><clipPath id="90b8c58092"><path d="M 21.90625 28 L 51.808594 28 L 51.808594 58.648438 L 21.90625 58.648438 Z M 21.90625 28 " clip-rule="nonzero"/></clipPath></defs><g clip-path="url(#081c9ed19e)"><g clip-path="url(#32fd232182)"><path fill="#69247c" d="M 5.308594 7.851562 L 68.109375 7.851562 L 68.109375 70.652344 L 5.308594 70.652344 Z M 5.308594 7.851562 " fill-opacity="1" fill-rule="nonzero"/></g></g><g clip-path="url(#b982624355)"><path fill="#ffffff" d="M 44.394531 30.207031 C 44.394531 30.953125 43.785156 31.5625 43.039062 31.5625 C 42.292969 31.5625 41.679688 30.953125 41.679688 30.207031 L 41.679688 27.492188 C 41.679688 24.746094 39.453125 22.515625 36.707031 22.515625 C 33.960938 22.515625 31.730469 24.746094 31.730469 27.492188 L 31.730469 30.207031 C 31.730469 30.953125 31.121094 31.5625 30.375 31.5625 C 29.628906 31.5625 29.015625 30.953125 29.015625 30.207031 L 29.015625 27.492188 C 29.015625 23.246094 32.457031 19.804688 36.707031 19.804688 C 40.953125 19.804688 44.394531 23.246094 44.394531 27.492188 Z M 44.394531 30.207031 " fill-opacity="1" fill-rule="evenodd"/></g><g clip-path="url(#90b8c58092)"><path fill="#ffffff" d="M 49.980469 32.648438 L 51.429688 54.347656 C 51.507812 55.476562 51.109375 56.578125 50.34375 57.398438 C 49.574219 58.222656 48.496094 58.6875 47.371094 58.6875 L 26.042969 58.6875 C 24.914062 58.6875 23.835938 58.222656 23.066406 57.398438 C 22.292969 56.578125 21.90625 55.476562 21.980469 54.347656 L 23.429688 32.648438 C 23.574219 30.511719 25.347656 28.847656 27.492188 28.847656 L 45.929688 28.847656 C 48.066406 28.847656 49.835938 30.511719 49.980469 32.648438 Z M 41.199219 36.859375 C 40.402344 38.539062 38.6875 39.699219 36.707031 39.699219 C 34.722656 39.699219 33.007812 38.539062 32.210938 36.859375 C 31.890625 36.183594 31.085938 35.894531 30.40625 36.214844 C 29.730469 36.539062 29.441406 37.34375 29.761719 38.019531 C 30.992188 40.617188 33.644531 42.414062 36.707031 42.414062 C 39.765625 42.414062 42.417969 40.617188 43.648438 38.019531 C 43.96875 37.34375 43.683594 36.539062 43.003906 36.214844 C 42.335938 35.894531 41.519531 36.183594 41.199219 36.859375 Z M 41.199219 36.859375 " fill-opacity="1" fill-rule="evenodd"/></g><g fill="#69247c" fill-opacity="1"><g transform="translate(73.039423, 55.322066)"><g><path d="M 8.65625 -32.375 L 16.484375 -7.78125 L 16.78125 -7.78125 L 24.625 -32.375 L 32.21875 -32.375 L 21.0625 0 L 12.234375 0 L 1.0625 -32.375 Z M 8.65625 -32.375 "/></g></g></g><g fill="#69247c" fill-opacity="1"><g transform="translate(106.326653, 55.322066)"><g><path d="M 13.75 0.46875 C 11.257812 0.46875 9.113281 -0.0351562 7.3125 -1.046875 C 5.507812 -2.066406 4.125 -3.507812 3.15625 -5.375 C 2.1875 -7.25 1.703125 -9.46875 1.703125 -12.03125 C 1.703125 -14.53125 2.1875 -16.722656 3.15625 -18.609375 C 4.125 -20.492188 5.488281 -21.960938 7.25 -23.015625 C 9.019531 -24.066406 11.097656 -24.59375 13.484375 -24.59375 C 15.617188 -24.59375 17.546875 -24.140625 19.265625 -23.234375 C 20.992188 -22.328125 22.363281 -20.957031 23.375 -19.125 C 24.382812 -17.300781 24.890625 -15.015625 24.890625 -12.265625 L 24.890625 -10.421875 L 8.359375 -10.421875 L 8.359375 -10.40625 C 8.359375 -8.59375 8.851562 -7.160156 9.84375 -6.109375 C 10.832031 -5.066406 12.171875 -4.546875 13.859375 -4.546875 C 14.992188 -4.546875 15.96875 -4.78125 16.78125 -5.25 C 17.601562 -5.726562 18.1875 -6.429688 18.53125 -7.359375 L 24.75 -6.953125 C 24.28125 -4.703125 23.082031 -2.898438 21.15625 -1.546875 C 19.226562 -0.203125 16.757812 0.46875 13.75 0.46875 Z M 8.359375 -14.59375 L 18.5625 -14.59375 C 18.550781 -16.03125 18.085938 -17.21875 17.171875 -18.15625 C 16.253906 -19.101562 15.0625 -19.578125 13.59375 -19.578125 C 12.09375 -19.578125 10.863281 -19.085938 9.90625 -18.109375 C 8.945312 -17.140625 8.429688 -15.96875 8.359375 -14.59375 Z M 8.359375 -14.59375 "/></g></g></g><g fill="#69247c" fill-opacity="1"><g transform="translate(132.927993, 55.322066)"><g><path d="M 13.625 9.453125 C 10.351562 9.453125 7.785156 8.804688 5.921875 7.515625 C 4.054688 6.234375 2.925781 4.675781 2.53125 2.84375 L 8.75 2 C 9.03125 2.65625 9.566406 3.253906 10.359375 3.796875 C 11.160156 4.335938 12.300781 4.609375 13.78125 4.609375 C 15.25 4.609375 16.457031 4.257812 17.40625 3.5625 C 18.363281 2.875 18.84375 1.734375 18.84375 0.140625 L 18.84375 -4.296875 L 18.5625 -4.296875 C 18.113281 -3.296875 17.332031 -2.382812 16.21875 -1.5625 C 15.101562 -0.75 13.578125 -0.34375 11.640625 -0.34375 C 9.816406 -0.34375 8.15625 -0.769531 6.65625 -1.625 C 5.164062 -2.476562 3.976562 -3.78125 3.09375 -5.53125 C 2.21875 -7.28125 1.78125 -9.5 1.78125 -12.1875 C 1.78125 -14.945312 2.226562 -17.242188 3.125 -19.078125 C 4.03125 -20.910156 5.226562 -22.285156 6.71875 -23.203125 C 8.21875 -24.128906 9.851562 -24.59375 11.625 -24.59375 C 12.976562 -24.59375 14.113281 -24.363281 15.03125 -23.90625 C 15.945312 -23.445312 16.6875 -22.878906 17.25 -22.203125 C 17.820312 -21.535156 18.257812 -20.867188 18.5625 -20.203125 L 18.8125 -20.203125 L 18.8125 -24.28125 L 25.5 -24.28125 L 25.5 0.234375 C 25.5 2.242188 24.988281 3.929688 23.96875 5.296875 C 22.957031 6.671875 21.5625 7.707031 19.78125 8.40625 C 18 9.101562 15.945312 9.453125 13.625 9.453125 Z M 13.765625 -5.40625 C 15.390625 -5.40625 16.644531 -6.003906 17.53125 -7.203125 C 18.425781 -8.410156 18.875 -10.082031 18.875 -12.21875 C 18.875 -14.34375 18.429688 -16.039062 17.546875 -17.3125 C 16.660156 -18.59375 15.398438 -19.234375 13.765625 -19.234375 C 12.097656 -19.234375 10.828125 -18.578125 9.953125 -17.265625 C 9.085938 -15.960938 8.65625 -14.28125 8.65625 -12.21875 C 8.65625 -10.125 9.09375 -8.460938 9.96875 -7.234375 C 10.84375 -6.015625 12.109375 -5.40625 13.765625 -5.40625 Z M 13.765625 -5.40625 "/></g></g></g><g fill="#69247c" fill-opacity="1"><g transform="translate(161.109921, 55.322066)"><g><path d="M 9.609375 0.453125 C 7.296875 0.453125 5.375 -0.148438 3.84375 -1.359375 C 2.3125 -2.566406 1.546875 -4.375 1.546875 -6.78125 C 1.546875 -8.59375 1.972656 -10.015625 2.828125 -11.046875 C 3.679688 -12.078125 4.800781 -12.832031 6.1875 -13.3125 C 7.570312 -13.789062 9.066406 -14.109375 10.671875 -14.265625 C 12.773438 -14.472656 14.28125 -14.691406 15.1875 -14.921875 C 16.09375 -15.148438 16.546875 -15.65625 16.546875 -16.4375 L 16.546875 -16.53125 C 16.546875 -17.53125 16.234375 -18.304688 15.609375 -18.859375 C 14.984375 -19.410156 14.097656 -19.6875 12.953125 -19.6875 C 11.734375 -19.6875 10.765625 -19.421875 10.046875 -18.890625 C 9.335938 -18.359375 8.863281 -17.691406 8.625 -16.890625 L 2.40625 -17.390625 C 2.863281 -19.597656 4.007812 -21.347656 5.84375 -22.640625 C 7.6875 -23.941406 10.066406 -24.59375 12.984375 -24.59375 C 14.785156 -24.59375 16.46875 -24.304688 18.03125 -23.734375 C 19.601562 -23.171875 20.867188 -22.285156 21.828125 -21.078125 C 22.796875 -19.867188 23.28125 -18.300781 23.28125 -16.375 L 23.28125 0 L 16.90625 0 L 16.90625 -3.359375 L 16.703125 -3.359375 C 16.117188 -2.234375 15.238281 -1.316406 14.0625 -0.609375 C 12.882812 0.0976562 11.398438 0.453125 9.609375 0.453125 Z M 11.546875 -4.1875 C 13.015625 -4.1875 14.222656 -4.613281 15.171875 -5.46875 C 16.117188 -6.332031 16.59375 -7.398438 16.59375 -8.671875 L 16.59375 -11.25 C 16.332031 -11.070312 15.925781 -10.914062 15.375 -10.78125 C 14.820312 -10.644531 14.226562 -10.523438 13.59375 -10.421875 C 12.96875 -10.328125 12.410156 -10.242188 11.921875 -10.171875 C 10.742188 -9.992188 9.789062 -9.65625 9.0625 -9.15625 C 8.34375 -8.664062 7.984375 -7.945312 7.984375 -7 C 7.984375 -6.070312 8.316406 -5.367188 8.984375 -4.890625 C 9.648438 -4.421875 10.503906 -4.1875 11.546875 -4.1875 Z M 11.546875 -4.1875 "/></g></g></g><g fill="#69247c" fill-opacity="1"><g transform="translate(186.936762, 55.322066)"><g><path d="M 31.375 -21.046875 L 24.453125 -21.046875 C 24.191406 -22.828125 23.429688 -24.222656 22.171875 -25.234375 C 20.921875 -26.253906 19.359375 -26.765625 17.484375 -26.765625 C 14.972656 -26.765625 12.960938 -25.84375 11.453125 -24 C 9.941406 -22.164062 9.1875 -19.5625 9.1875 -16.1875 C 9.1875 -12.726562 9.945312 -10.097656 11.46875 -8.296875 C 12.988281 -6.503906 14.976562 -5.609375 17.4375 -5.609375 C 19.257812 -5.609375 20.800781 -6.082031 22.0625 -7.03125 C 23.332031 -7.988281 24.128906 -9.332031 24.453125 -11.0625 L 31.375 -11.03125 C 31.132812 -9.050781 30.425781 -7.1875 29.25 -5.4375 C 28.082031 -3.6875 26.492188 -2.269531 24.484375 -1.1875 C 22.484375 -0.101562 20.097656 0.4375 17.328125 0.4375 C 14.441406 0.4375 11.863281 -0.210938 9.59375 -1.515625 C 7.320312 -2.828125 5.53125 -4.71875 4.21875 -7.1875 C 2.90625 -9.664062 2.25 -12.664062 2.25 -16.1875 C 2.25 -19.71875 2.910156 -22.71875 4.234375 -25.1875 C 5.566406 -27.664062 7.367188 -29.554688 9.640625 -30.859375 C 11.921875 -32.160156 14.484375 -32.8125 17.328125 -32.8125 C 19.828125 -32.8125 22.078125 -32.347656 24.078125 -31.421875 C 26.085938 -30.503906 27.734375 -29.164062 29.015625 -27.40625 C 30.296875 -25.65625 31.082031 -23.535156 31.375 -21.046875 Z M 31.375 -21.046875 "/></g></g></g><g fill="#69247c" fill-opacity="1"><g transform="translate(220.413666, 55.322066)"><g><path d="M 9.609375 0.453125 C 7.296875 0.453125 5.375 -0.148438 3.84375 -1.359375 C 2.3125 -2.566406 1.546875 -4.375 1.546875 -6.78125 C 1.546875 -8.59375 1.972656 -10.015625 2.828125 -11.046875 C 3.679688 -12.078125 4.800781 -12.832031 6.1875 -13.3125 C 7.570312 -13.789062 9.066406 -14.109375 10.671875 -14.265625 C 12.773438 -14.472656 14.28125 -14.691406 15.1875 -14.921875 C 16.09375 -15.148438 16.546875 -15.65625 16.546875 -16.4375 L 16.546875 -16.53125 C 16.546875 -17.53125 16.234375 -18.304688 15.609375 -18.859375 C 14.984375 -19.410156 14.097656 -19.6875 12.953125 -19.6875 C 11.734375 -19.6875 10.765625 -19.421875 10.046875 -18.890625 C 9.335938 -18.359375 8.863281 -17.691406 8.625 -16.890625 L 2.40625 -17.390625 C 2.863281 -19.597656 4.007812 -21.347656 5.84375 -22.640625 C 7.6875 -23.941406 10.066406 -24.59375 12.984375 -24.59375 C 14.785156 -24.59375 16.46875 -24.304688 18.03125 -23.734375 C 19.601562 -23.171875 20.867188 -22.285156 21.828125 -21.078125 C 22.796875 -19.867188 23.28125 -18.300781 23.28125 -16.375 L 23.28125 0 L 16.90625 0 L 16.90625 -3.359375 L 16.703125 -3.359375 C 16.117188 -2.234375 15.238281 -1.316406 14.0625 -0.609375 C 12.882812 0.0976562 11.398438 0.453125 9.609375 0.453125 Z M 11.546875 -4.1875 C 13.015625 -4.1875 14.222656 -4.613281 15.171875 -5.46875 C 16.117188 -6.332031 16.59375 -7.398438 16.59375 -8.671875 L 16.59375 -11.25 C 16.332031 -11.070312 15.925781 -10.914062 15.375 -10.78125 C 14.820312 -10.644531 14.226562 -10.523438 13.59375 -10.421875 C 12.96875 -10.328125 12.410156 -10.242188 11.921875 -10.171875 C 10.742188 -9.992188 9.789062 -9.65625 9.0625 -9.15625 C 8.34375 -8.664062 7.984375 -7.945312 7.984375 -7 C 7.984375 -6.070312 8.316406 -5.367188 8.984375 -4.890625 C 9.648438 -4.421875 10.503906 -4.1875 11.546875 -4.1875 Z M 11.546875 -4.1875 "/></g></g></g><g fill="#69247c" fill-opacity="1"><g transform="translate(246.240508, 55.322066)"><g><path d="M 2.6875 0 L 2.6875 -24.28125 L 9.21875 -24.28125 L 9.21875 -20.046875 L 9.46875 -20.046875 C 9.914062 -21.554688 10.65625 -22.695312 11.6875 -23.46875 C 12.726562 -24.238281 13.929688 -24.625 15.296875 -24.625 C 15.953125 -24.625 16.554688 -24.546875 17.109375 -24.390625 C 17.671875 -24.234375 18.175781 -24.019531 18.625 -23.75 L 16.59375 -18.171875 C 16.28125 -18.335938 15.9375 -18.472656 15.5625 -18.578125 C 15.1875 -18.691406 14.769531 -18.75 14.3125 -18.75 C 12.945312 -18.75 11.789062 -18.285156 10.84375 -17.359375 C 9.90625 -16.429688 9.429688 -15.222656 9.421875 -13.734375 L 9.421875 0 Z M 2.6875 0 "/></g></g></g><g fill="#69247c" fill-opacity="1"><g transform="translate(265.318235, 55.322066)"><g><path d="M 15.609375 -24.28125 L 15.609375 -19.21875 L 11.03125 -19.21875 L 11.03125 -7.46875 C 11.03125 -6.539062 11.238281 -5.910156 11.65625 -5.578125 C 12.082031 -5.253906 12.632812 -5.09375 13.3125 -5.09375 C 13.625 -5.09375 13.9375 -5.117188 14.25 -5.171875 C 14.570312 -5.234375 14.816406 -5.28125 14.984375 -5.3125 L 16.046875 -0.296875 C 15.710938 -0.191406 15.238281 -0.0703125 14.625 0.0625 C 14.007812 0.207031 13.265625 0.296875 12.390625 0.328125 C 9.941406 0.429688 7.976562 -0.09375 6.5 -1.25 C 5.019531 -2.414062 4.285156 -4.191406 4.296875 -6.578125 L 4.296875 -19.21875 L 0.984375 -19.21875 L 0.984375 -24.28125 L 4.296875 -24.28125 L 4.296875 -30.09375 L 11.03125 -30.09375 L 11.03125 -24.28125 Z M 15.609375 -24.28125 "/></g></g></g></svg>